<svg width="35" height="34" viewBox="0 0 35 34" fill="none" xmlns="http://www.w3.org/2000/svg">
<g clip-path="url(#clip0_1181_119774)">
<path d="M16.3633 31.1384L16.3634 31.1384C16.3714 31.1371 16.3794 31.1357 16.3874 31.1344C16.4206 31.1289 16.4535 31.1234 16.4861 31.118C17.6516 30.9239 18.4078 30.7981 19.1125 30.4914C19.8171 30.1848 20.4247 29.7173 21.361 28.9967C21.3935 28.9717 21.4264 28.9464 21.4597 28.9208L25.5976 25.7378L25.6651 25.6859C28.081 23.8275 29.9825 22.3649 31.2695 21.0403C32.5865 19.6849 33.4071 18.3283 33.4071 16.6667C33.4071 15.005 32.5865 13.6484 31.2695 12.293C29.9825 10.9685 28.081 9.50578 25.6651 7.64747L25.5976 7.59552L21.4597 4.4125C21.4264 4.38689 21.3935 4.36159 21.361 4.33659C20.4246 3.61602 19.8171 3.14852 19.1125 2.8419L18.7135 3.75885L19.1125 2.8419C18.4078 2.53528 17.6516 2.40939 16.4861 2.21537C16.4457 2.20864 16.4048 2.20182 16.3633 2.19492L15.437 2.04052L15.3563 2.02708C12.602 1.56801 10.4279 1.20564 8.71484 1.16425C6.95713 1.12178 5.50129 1.40897 4.31142 2.41695C3.12154 3.42492 2.59892 4.81374 2.35185 6.55451C2.11104 8.25108 2.11106 10.4552 2.11108 13.2475L2.11108 13.3293V20.0041L2.11108 20.0858C2.11106 22.8781 2.11104 25.0823 2.35185 26.7788C2.59892 28.5196 3.12154 29.9084 4.31142 30.9164C5.50129 31.9244 6.95713 32.2115 8.71483 32.1691C10.4279 32.1277 12.602 31.7653 15.3563 31.3063L15.437 31.2928L16.3633 31.1384Z" fill="#B057EF" stroke="#5028A3" stroke-width="2"/>
<path d="M6.71944 17.4346C6.0555 16.9119 6.0555 15.9058 6.71944 15.383L14.0742 9.59269C14.9306 8.91843 16.1873 9.52849 16.1873 10.6185L16.1873 22.1992C16.1873 23.2892 14.9306 23.8992 14.0742 23.225L6.71944 17.4346Z" fill="#5028A3"/>
</g>
<defs>
<clipPath id="clip0_1181_119774">
<rect width="35" height="34" fill="white"/>
</clipPath>
</defs>
</svg>
