<svg width="35" height="34" viewBox="0 0 35 34" fill="none" xmlns="http://www.w3.org/2000/svg">
<g clip-path="url(#clip0_1182_119781)">
<g filter="url(#filter0_i_1182_119781)">
<path d="M3.11011 13.3293V20.0041C3.11011 25.7273 3.11011 28.589 4.95682 30.1534C6.80352 31.7178 9.62622 31.2473 15.2716 30.3064L16.198 30.152L16.198 30.152C17.4808 29.9382 18.1223 29.8313 18.7125 29.5745C19.3027 29.3177 19.8181 28.9212 20.849 28.1282L24.9869 24.9452C29.9331 21.1405 32.4061 19.2381 32.4061 16.6667C32.4061 14.0952 29.9331 12.1929 24.9869 8.38815L20.849 5.20513C19.8181 4.41216 19.3027 4.01567 18.7125 3.75885C18.1223 3.50203 17.4808 3.39512 16.198 3.18131L15.2716 3.02692C9.62622 2.08602 6.80353 1.61557 4.95682 3.17997C3.11011 4.74436 3.11011 7.606 3.11011 13.3293Z" fill="#61DDFF"/>
</g>
<path d="M16.3624 31.1384L16.3624 31.1384C16.3704 31.1371 16.3784 31.1357 16.3864 31.1344C16.4196 31.1289 16.4525 31.1234 16.4851 31.118C17.6506 30.9239 18.4068 30.7981 19.1115 30.4914C19.8161 30.1848 20.4237 29.7173 21.3601 28.9967C21.3925 28.9717 21.4254 28.9464 21.4587 28.9208L25.5966 25.7378L25.6642 25.6859C28.08 23.8275 29.9815 22.3649 31.2685 21.0403C32.5855 19.6849 33.4061 18.3283 33.4061 16.6667C33.4061 15.005 32.5855 13.6484 31.2685 12.293C29.9815 10.9685 28.08 9.50578 25.6642 7.64747L25.5966 7.59552L21.4587 4.4125C21.4254 4.38689 21.3925 4.36159 21.36 4.33659C20.4237 3.61602 19.8161 3.14852 19.1115 2.8419L18.7125 3.75885L19.1115 2.8419C18.4068 2.53528 17.6507 2.40939 16.4852 2.21537C16.4447 2.20864 16.4038 2.20182 16.3624 2.19492L15.436 2.04052L15.3554 2.02708C12.6011 1.56801 10.4269 1.20564 8.71386 1.16425C6.95616 1.12178 5.50031 1.40897 4.31044 2.41695C3.12057 3.42492 2.59795 4.81374 2.35087 6.55451C2.11007 8.25108 2.11008 10.4552 2.11011 13.2475L2.11011 13.3293V20.0041L2.11011 20.0858C2.11008 22.8781 2.11007 25.0823 2.35087 26.7788C2.59795 28.5196 3.12057 29.9084 4.31044 30.9164C5.50031 31.9244 6.95615 32.2115 8.71386 32.1691C10.4269 32.1277 12.601 31.7653 15.3553 31.3063L15.436 31.2928L16.3624 31.1384Z" stroke="#61DDFF" stroke-width="2"/>
<path d="M6.71846 17.9903C6.05452 17.4676 6.05452 16.4614 6.71846 15.9387L14.0732 10.1484C14.9296 9.4741 16.1864 10.0842 16.1864 11.1741L16.1864 22.7549C16.1864 23.8448 14.9296 24.4549 14.0732 23.7807L6.71846 17.9903Z" fill="#B057EF"/>
</g>
<defs>
<filter id="filter0_i_1182_119781" x="1.11011" y="0.160156" width="33.2961" height="33.0127" filterUnits="userSpaceOnUse" color-interpolation-filters="sRGB">
<feFlood flood-opacity="0" result="BackgroundImageFix"/>
<feBlend mode="normal" in="SourceGraphic" in2="BackgroundImageFix" result="shape"/>
<feColorMatrix in="SourceAlpha" type="matrix" values="0 0 0 0 0 0 0 0 0 0 0 0 0 0 0 0 0 0 127 0" result="hardAlpha"/>
<feOffset/>
<feGaussianBlur stdDeviation="5.22222"/>
<feComposite in2="hardAlpha" operator="arithmetic" k2="-1" k3="1"/>
<feColorMatrix type="matrix" values="0 0 0 0 0 0 0 0 0 0 0 0 0 0 0 0 0 0 0.25 0"/>
<feBlend mode="normal" in2="shape" result="effect1_innerShadow_1182_119781"/>
</filter>
<clipPath id="clip0_1182_119781">
<rect width="35" height="34" fill="white"/>
</clipPath>
</defs>
</svg>
