<svg width="480" height="360" viewBox="0 0 480 360" fill="none" xmlns="http://www.w3.org/2000/svg">
<path fill-rule="evenodd" clip-rule="evenodd" d="M440 8H40C30.3458 8 23.9098 8.01699 19.1205 8.6609C14.5614 9.27386 12.7095 10.3199 11.5147 11.5147C10.3199 12.7095 9.27386 14.5614 8.6609 19.1205C8.01699 23.9098 8 30.3457 8 40V320C8 329.654 8.01699 336.09 8.6609 340.879C9.27386 345.439 10.3199 347.291 11.5147 348.485C12.7095 349.68 14.5614 350.726 19.1205 351.339C23.9098 351.983 30.3457 352 40 352H440C449.654 352 456.09 351.983 460.879 351.339C465.439 350.726 467.291 349.68 468.485 348.485C469.68 347.291 470.726 345.439 471.339 340.879C471.983 336.09 472 329.654 472 320V40C472 30.3457 471.983 23.9098 471.339 19.1205C470.726 14.5614 469.68 12.7095 468.485 11.5147C467.291 10.3199 465.439 9.27386 460.879 8.6609C456.09 8.01699 449.654 8 440 8Z" fill="black"/>
</svg>
