<svg width="480" height="360" viewBox="0 0 480 360" fill="none" xmlns="http://www.w3.org/2000/svg">
<path d="M40 4H440C449.541 4 456.295 4.00849 461.412 4.69656C466.415 5.36916 469.252 6.62444 471.314 8.68629C473.376 10.7481 474.631 13.5848 475.303 18.5876C475.992 23.7053 476 30.4588 476 40V320C476 329.541 475.992 336.295 475.303 341.412C474.631 346.415 473.376 349.252 471.314 351.314C469.252 353.376 466.415 354.631 461.412 355.303C456.295 355.992 449.541 356 440 356H40C30.4588 356 23.7053 355.992 18.5875 355.303C13.5848 354.631 10.7481 353.376 8.68629 351.314C6.62444 349.252 5.36916 346.415 4.69656 341.412C4.00849 336.295 4 329.541 4 320V40C4 30.4588 4.00849 23.7053 4.69656 18.5876C5.36916 13.5848 6.62443 10.7481 8.68629 8.68629C10.7481 6.62443 13.5848 5.36916 18.5876 4.69656C23.7053 4.00849 30.4588 4 40 4Z" stroke="#5028A3" stroke-width="8"/>
</svg>
